# xmcd CD database file
#
# Track frame offsets:
#	150
#	15113
#	34613
#	59266
#	79816
#	109408
#	123883
#	146547
#	171239
#	200784
#	228924
#
# Disc length: 3203 seconds
#
# Revision: 0
# Processed by: cddbd v1.5.1PL0 Copyright (c) Steve Scherf et al.
# Submitted via: CDex 1.60beta1
#
DISCID=8b0c810b
DTITLE=Golden City Factory - 〜 悲しみのProcess 〜　天使のいない12月
DYEAR=1900
DGENRE=サウンドトラック (一般)
TTITLE0=それでも誰かを好きになる
TTITLE1=雪のアフェクション
TTITLE2=Final Option
TTITLE3=無口な歌声
TTITLE4=それでも誰かを好きになる
TTITLE5=Color Of Life
TTITLE6=天使は自転車に乗って
TTITLE7=シンプルライフ
TTITLE8=黄昏のゆりかご
TTITLE9=永遠よりも彼方から
TTITLE10=Closeted Myself
EXTD=
EXTT0=
EXTT1=
EXTT2=
EXTT3=
EXTT4=
EXTT5=
EXTT6=
EXTT7=
EXTT8=
EXTT9=
EXTT10=
PLAYORDER=
